# xmcd
#
# Track frame offsets: 
#        150
#        1715
#        19167
#        37380
#        53426
#        55409
#        75445
#        86775
#
# Disc length: 1341 seconds
#
# Revision: 0
# Processed by: cddbd v1.5.2PL0 Copyright (c) Steve Scherf et al.
# Submitted via: ExactAudioCopy v1.0b3
#
DISCID=57053b08
DTITLE=DJ PMX  - Summer Time In Tha D.S.C.
DYEAR=2006
DGENRE=Hip Hop
TTITLE0=Intro
TTITLE1=Too Hot feat. Kayzabro, Ghetto Inc., Iz
TTITLE2=Slow Emotion feat. Kayzabro, Maccho [Ozrosaurus], Say
TTITLE3=Locohama Locsta feat. Maccho [Ozrosaurus]
TTITLE4=Melodious Breeze feat. Big Ron
TTITLE5=熱帯夜 feat. Kayzabro, Maccho [Ozrosaurus], Big Ron, Say
TTITLE6=Pubb'z Groove III
TTITLE7=夕凪 ~ In My Hood ~ feat. Kayzabro, Big Ron
EXTD=
EXTT0=
EXTT1=
EXTT2=
EXTT3=
EXTT4=
EXTT5=
EXTT6=
EXTT7=
PLAYORDER=
